<?xml version="1.0" standalone="no"?>
<!DOCTYPE svg PUBLIC "-//W3C//DTD SVG 20010904//EN"
 "http://www.w3.org/TR/2001/REC-SVG-20010904/DTD/svg10.dtd">
<svg version="1.0" xmlns="http://www.w3.org/2000/svg"
 width="1200.000000pt" height="1200.000000pt" viewBox="0 0 1200.000000 1200.000000"
 preserveAspectRatio="xMidYMid meet">

<g transform="translate(0.000000,1200.000000) scale(0.100000,-0.100000)"
fill="#000000" stroke="none">
<path d="M3780 4395 l0 -315 55 0 55 0 0 68 c0 54 4 72 18 85 10 10 23 17 28
17 5 -1 33 -39 62 -85 l54 -85 64 0 c35 0 64 2 64 5 0 2 -38 60 -84 127 l-84
124 78 89 78 90 -66 3 c-75 3 -65 10 -169 -113 l-43 -50 0 178 0 177 -55 0
-55 0 0 -315z"/>
<path d="M6800 4395 l0 -315 60 0 60 0 0 315 0 315 -60 0 -60 0 0 -315z"/>
<path d="M1843 4681 c-86 -22 -143 -85 -143 -158 0 -87 44 -133 180 -184 103
-38 130 -61 130 -105 0 -44 -30 -64 -96 -64 -61 0 -99 25 -109 70 -6 29 -8 30
-66 30 -52 0 -59 -2 -59 -19 0 -55 47 -118 115 -154 62 -32 194 -31 254 3 57
32 83 76 83 141 0 93 -55 143 -226 204 -87 31 -112 83 -60 124 54 42 158 16
166 -42 3 -19 10 -22 62 -25 l59 -3 -6 40 c-11 85 -84 141 -192 147 -33 2 -74
-1 -92 -5z"/>
<path d="M4610 4380 l0 -302 133 4 c120 3 137 6 185 31 98 51 149 159 139 292
-9 121 -53 197 -140 242 -47 25 -64 28 -184 31 l-133 4 0 -302z m259 182 c52
-26 75 -79 75 -177 1 -140 -47 -205 -153 -205 l-51 0 0 200 0 200 48 0 c26 0
62 -8 81 -18z"/>
<path d="M10140 4575 l0 -55 -33 0 c-32 0 -33 -1 -31 -37 1 -21 2 -41 3 -45 1
-5 15 -8 31 -8 l30 0 0 -135 c0 -104 4 -143 16 -166 24 -47 96 -70 162 -53 18
5 22 13 22 50 0 42 0 43 -37 46 l-38 3 -3 128 -3 127 36 0 c35 0 35 0 35 45 0
45 0 45 -35 45 l-35 0 0 55 0 55 -60 0 -60 0 0 -55z"/>
<path d="M2470 4519 c-13 -6 -33 -17 -42 -26 -17 -15 -18 -15 -18 5 0 20 -5
22 -55 22 l-55 0 0 -305 0 -305 55 0 55 0 0 100 c0 55 1 100 3 100 1 0 20 -9
42 -20 85 -44 173 -9 216 85 13 29 19 63 19 125 0 62 -6 96 -19 125 -40 86
-123 125 -201 94z m84 -122 c30 -41 30 -153 0 -194 -25 -32 -58 -43 -97 -30
-39 13 -47 35 -47 131 0 73 3 89 21 107 30 30 95 23 123 -14z"/>
<path d="M2968 4521 c-65 -21 -118 -73 -118 -115 0 -13 12 -16 58 -16 50 0 59
3 67 23 8 17 20 23 51 25 46 3 61 -8 70 -55 l6 -30 -74 -5 c-124 -8 -188 -56
-188 -141 0 -53 26 -93 75 -117 53 -25 100 -25 148 0 32 18 38 18 43 5 5 -11
22 -15 66 -15 53 0 59 2 53 18 -4 9 -10 89 -14 177 -7 178 -14 200 -73 231
-37 19 -131 27 -170 15z m132 -280 c0 -31 -6 -44 -26 -60 -51 -40 -114 -22
-114 34 0 44 29 65 92 65 l48 0 0 -39z"/>
<path d="M3544 4511 c-18 -11 -34 -25 -37 -33 -3 -7 -6 -1 -6 15 -1 26 -3 27
-56 27 l-55 0 0 -220 0 -220 55 0 55 0 0 145 c0 132 2 147 20 165 14 14 33 20
65 20 36 0 45 4 46 18 5 98 6 97 -26 100 -17 1 -44 -6 -61 -17z"/>
<path d="M5360 4515 c-55 -25 -99 -74 -115 -129 -31 -103 -14 -190 49 -252 79
-80 212 -86 298 -13 l33 27 -28 30 -29 30 -31 -18 c-58 -33 -119 -30 -158 9
-55 56 -46 61 112 61 l142 0 -5 69 c-6 81 -36 142 -85 172 -45 28 -137 35
-183 14z m133 -102 c8 -10 19 -30 22 -45 l7 -28 -87 0 c-75 0 -86 2 -81 16 3
9 6 20 6 25 0 5 9 18 20 29 26 26 90 27 113 3z"/>
<path d="M6370 4515 c-55 -25 -99 -74 -115 -129 -31 -103 -14 -190 49 -252 79
-80 212 -86 298 -13 l33 27 -28 30 -29 30 -31 -18 c-58 -33 -119 -30 -158 9
-55 56 -46 61 112 61 l142 0 -5 69 c-6 81 -36 142 -85 172 -45 28 -137 35
-183 14z m133 -102 c8 -10 19 -30 22 -45 l7 -28 -87 0 c-75 0 -86 2 -81 16 3
9 6 20 6 25 0 5 9 18 20 29 26 26 90 27 113 3z"/>
<path d="M7215 4518 c-54 -19 -87 -50 -112 -105 -21 -46 -25 -66 -21 -126 6
-125 68 -201 173 -213 96 -12 175 28 217 110 30 57 30 174 0 232 -48 94 -157
137 -257 102z m139 -121 c30 -41 30 -153 0 -194 -38 -51 -111 -47 -140 9 -31
59 -12 194 28 212 7 2 31 4 52 3 30 -2 44 -9 60 -30z"/>
<path d="M7840 4519 c-13 -6 -33 -17 -42 -26 -17 -15 -18 -15 -18 5 0 20 -5
22 -55 22 l-55 0 0 -305 0 -305 55 0 55 0 0 100 c0 55 1 100 3 100 1 0 20 -9
42 -20 85 -44 173 -9 216 85 13 29 19 63 19 125 0 62 -6 96 -19 125 -40 86
-123 125 -201 94z m84 -122 c30 -41 30 -153 0 -194 -25 -32 -58 -43 -97 -30
-39 13 -47 35 -47 131 0 73 3 89 21 107 30 30 95 23 123 -14z"/>
<path d="M8377 4506 c-44 -22 -47 -22 -47 -5 0 16 -8 19 -55 19 l-55 0 0 -220
0 -220 55 0 55 0 0 155 c0 142 2 157 20 175 24 24 91 27 110 5 9 -11 13 -62
14 -175 l0 -160 58 0 58 0 0 155 c0 142 2 157 20 175 23 23 88 28 108 8 8 -8
12 -62 12 -175 l0 -163 60 0 60 0 0 159 c0 87 -3 173 -6 190 -20 97 -152 133
-234 64 l-31 -26 -22 20 c-54 50 -109 56 -180 19z"/>
<path d="M9140 4515 c-55 -25 -99 -74 -115 -129 -31 -103 -14 -190 49 -252 79
-80 212 -86 298 -13 l33 27 -28 30 -29 30 -31 -18 c-58 -33 -119 -30 -158 9
-55 56 -46 61 112 61 l142 0 -5 69 c-6 81 -36 142 -85 172 -45 28 -137 35
-183 14z m133 -102 c8 -10 19 -30 22 -45 l7 -28 -87 0 c-75 0 -86 2 -81 16 3
9 6 20 6 25 0 5 9 18 20 29 26 26 90 27 113 3z"/>
<path d="M9728 4507 c-45 -23 -48 -23 -53 -6 -5 16 -17 19 -61 19 l-54 0 0
-220 0 -220 60 0 60 0 0 159 c0 154 1 160 22 175 12 9 39 16 60 16 61 0 68
-19 68 -197 l0 -153 59 0 58 0 -2 173 c-1 94 -7 183 -13 197 -30 75 -120 100
-204 57z"/>
<path d="M5732 4507 c2 -6 35 -105 73 -220 l70 -207 57 0 56 0 58 173 c31 94
65 193 75 220 l19 47 -63 0 -63 0 -39 -145 c-22 -79 -42 -141 -45 -137 -4 4
-21 61 -39 127 -18 66 -35 128 -37 138 -4 14 -17 17 -65 17 -44 0 -60 -4 -57
-13z"/>
<path d="M4820 3125 c0 -193 2 -225 15 -225 13 0 15 32 15 225 0 193 -2 225
-15 225 -13 0 -15 -32 -15 -225z"/>
<path d="M4251 3327 c-14 -17 3 -41 23 -34 9 4 16 13 16 21 0 19 -26 28 -39
13z"/>
<path d="M5011 3327 c-14 -17 3 -41 23 -34 9 4 16 13 16 21 0 19 -26 28 -39
13z"/>
<path d="M8221 3327 c-14 -17 3 -41 23 -34 9 4 16 13 16 21 0 19 -26 28 -39
13z"/>
<path d="M8771 3327 c-14 -17 3 -41 23 -34 9 4 16 13 16 21 0 19 -26 28 -39
13z"/>
<path d="M2414 3115 c0 -199 1 -215 18 -215 16 0 18 15 20 182 l3 181 75 -182
c53 -129 79 -181 90 -179 8 2 45 77 90 183 l75 180 3 -182 c2 -154 5 -183 17
-183 13 0 15 32 15 216 l0 215 -22 -3 c-19 -2 -35 -32 -98 -185 -41 -101 -78
-183 -81 -183 -3 0 -39 82 -80 183 -67 163 -78 182 -100 185 l-25 3 0 -216z"/>
<path d="M6119 3278 c132 -232 121 -205 121 -295 0 -76 2 -83 20 -83 18 0 20
7 20 84 l0 84 74 129 c68 118 76 143 43 130 -7 -3 -39 -55 -72 -116 -33 -61
-62 -111 -65 -111 -3 0 -33 52 -68 115 -48 87 -68 115 -83 115 -19 0 -19 -3
10 -52z"/>
<path d="M7785 3238 c116 -319 122 -333 140 -333 18 0 36 43 145 343 27 76 28
82 11 82 -15 0 -31 -36 -86 -190 -37 -104 -69 -190 -70 -190 -1 0 -33 86 -70
190 -54 153 -71 190 -86 190 -16 0 -15 -9 16 -92z"/>
<path d="M3390 3260 c0 -38 -2 -40 -30 -40 -20 0 -30 -5 -30 -15 0 -10 10 -15
30 -15 l30 0 0 -134 c0 -128 1 -136 22 -150 29 -21 78 -21 78 -1 0 9 -9 15
-23 15 -42 0 -47 17 -47 146 l0 123 33 3 c17 2 32 8 32 13 0 6 -15 11 -32 13
-31 3 -33 6 -33 43 0 28 -4 39 -15 39 -11 0 -15 -11 -15 -40z"/>
<path d="M3035 3205 c-33 -17 -55 -42 -55 -62 0 -21 16 -15 48 17 60 59 152
28 152 -51 0 -28 -2 -29 -47 -29 -135 0 -205 -80 -139 -157 21 -24 32 -28 74
-28 36 0 59 6 80 22 29 21 30 22 35 3 3 -11 11 -20 19 -20 10 0 12 26 9 127
-2 71 -7 136 -13 146 -12 23 -67 47 -105 47 -15 0 -41 -7 -58 -15z m145 -194
c0 -31 -6 -44 -27 -60 -51 -41 -110 -40 -138 2 -34 53 13 96 108 97 l57 0 0
-39z"/>
<path d="M3669 3197 c-46 -30 -69 -80 -69 -147 0 -65 24 -110 72 -140 53 -32
130 -21 167 23 20 25 -6 31 -35 8 -32 -25 -90 -27 -123 -5 -13 9 -29 32 -37
50 -27 64 -26 64 102 64 l116 0 -7 43 c-11 62 -32 97 -70 113 -48 20 -77 18
-116 -9z m122 -36 c17 -17 29 -40 29 -55 l0 -26 -95 0 c-52 0 -95 2 -95 5 0 3
6 21 14 39 29 70 97 87 147 37z"/>
<path d="M3990 3060 c0 -136 2 -160 15 -160 12 0 15 19 15 114 0 130 13 160
75 172 38 7 49 34 15 34 -26 0 -77 -26 -83 -42 -3 -7 -6 -1 -6 15 -1 17 -6 27
-16 27 -13 0 -15 -24 -15 -160z"/>
<path d="M4250 3060 c0 -136 2 -160 15 -160 13 0 15 24 15 160 0 136 -2 160
-15 160 -13 0 -15 -24 -15 -160z"/>
<path d="M4485 3205 c-33 -17 -55 -42 -55 -62 0 -21 16 -15 48 17 60 59 152
28 152 -51 0 -28 -2 -29 -47 -29 -135 0 -205 -80 -139 -157 21 -24 32 -28 74
-28 36 0 59 6 80 22 29 21 30 22 35 3 3 -11 11 -20 19 -20 10 0 12 26 9 127
-2 71 -7 136 -13 146 -12 23 -67 47 -105 47 -15 0 -41 -7 -58 -15z m145 -194
c0 -31 -6 -44 -27 -60 -51 -41 -110 -40 -138 2 -34 53 13 96 108 97 l57 0 0
-39z"/>
<path d="M5010 3060 c0 -136 2 -160 15 -160 13 0 15 24 15 160 0 136 -2 160
-15 160 -13 0 -15 -24 -15 -160z"/>
<path d="M5180 3205 c0 -12 17 -15 90 -15 50 0 90 -3 90 -6 0 -3 -40 -61 -90
-129 -49 -68 -90 -130 -90 -139 0 -14 17 -16 120 -16 99 0 120 3 120 15 0 11
-20 15 -99 17 l-99 3 94 129 c52 70 94 135 94 142 0 11 -24 14 -115 14 -96 0
-115 -3 -115 -15z"/>
<path d="M5599 3197 c-46 -30 -69 -80 -69 -147 0 -65 24 -110 72 -140 53 -32
130 -21 167 23 20 25 -6 31 -35 8 -32 -25 -90 -27 -123 -5 -13 9 -29 32 -37
50 -27 64 -26 64 102 64 l116 0 -7 43 c-11 62 -32 97 -70 113 -48 20 -77 18
-116 -9z m122 -36 c17 -17 29 -40 29 -55 l0 -26 -95 0 c-52 0 -95 2 -95 5 0 3
6 21 14 39 29 70 97 87 147 37z"/>
<path d="M6582 3201 c-49 -32 -72 -76 -72 -144 0 -94 46 -156 122 -164 118
-12 194 122 139 244 -23 50 -57 74 -114 80 -31 3 -51 -1 -75 -16z m134 -45
c34 -34 40 -54 34 -126 -8 -121 -150 -153 -196 -44 -58 138 65 267 162 170z"/>
<path d="M6930 3086 c0 -125 2 -137 23 -161 30 -36 89 -43 140 -17 29 16 37
17 37 6 0 -8 7 -14 15 -14 13 0 15 24 15 160 0 136 -2 160 -15 160 -12 0 -15
-20 -15 -122 -1 -128 -5 -144 -47 -166 -38 -21 -80 -15 -102 14 -19 24 -21 40
-21 150 0 104 -2 124 -15 124 -13 0 -15 -22 -15 -134z"/>
<path d="M7320 3060 c0 -136 2 -160 15 -160 12 0 15 19 15 114 0 130 13 160
75 172 38 7 49 34 15 34 -26 0 -77 -26 -83 -42 -3 -7 -6 -1 -6 15 -1 17 -6 27
-16 27 -13 0 -15 -24 -15 -160z"/>
<path d="M8220 3060 c0 -136 2 -160 15 -160 13 0 15 24 15 160 0 136 -2 160
-15 160 -13 0 -15 -24 -15 -160z"/>
<path d="M8453 3206 c-56 -25 -69 -80 -29 -121 13 -13 51 -31 85 -41 72 -20
100 -49 81 -83 -14 -27 -42 -41 -82 -41 -38 0 -78 24 -78 46 0 8 -9 14 -20 14
-25 0 -25 -11 1 -43 60 -78 219 -47 219 43 0 40 -26 64 -91 85 -105 33 -124
54 -87 100 14 19 29 25 57 25 40 0 81 -23 81 -46 0 -8 9 -14 20 -14 27 0 25
14 -8 51 -33 37 -98 48 -149 25z"/>
<path d="M8770 3060 c0 -136 2 -160 15 -160 13 0 15 24 15 160 0 136 -2 160
-15 160 -13 0 -15 -24 -15 -160z"/>
<path d="M9012 3201 c-49 -32 -72 -76 -72 -144 0 -94 46 -156 122 -164 118
-12 194 122 139 244 -23 50 -57 74 -114 80 -31 3 -51 -1 -75 -16z m134 -45
c34 -34 40 -54 34 -126 -8 -121 -150 -153 -196 -44 -58 138 65 267 162 170z"/>
<path d="M9360 3060 c0 -136 2 -160 15 -160 12 0 15 20 15 116 0 114 0 116 29
145 36 36 90 40 121 9 18 -18 20 -33 20 -145 0 -104 2 -125 15 -125 13 0 15
21 15 131 l0 131 -29 29 c-37 37 -84 39 -135 4 l-36 -24 0 24 c0 16 -6 25 -15
25 -13 0 -15 -24 -15 -160z"/>
</g>
</svg>
